<?xml version="1.0" encoding="utf-8"?>
<!-- Generator: Adobe Illustrator 16.0.0, SVG Export Plug-In . SVG Version: 6.00 Build 0)  -->
<!DOCTYPE svg PUBLIC "-//W3C//DTD SVG 1.1//EN" "http://www.w3.org/Graphics/SVG/1.1/DTD/svg11.dtd">
<svg version="1.1" id="Layer_1" xmlns="http://www.w3.org/2000/svg" xmlns:xlink="http://www.w3.org/1999/xlink" x="0px" y="0px"
	 width="524.018px" height="524.02px" viewBox="0 0 524.018 524.02" enable-background="new 0 0 524.018 524.02"
	 xml:space="preserve">
<g>
	<defs>
		<path id="SVGID_1_" d="M524.018,262.01c0,144.705-117.309,262.01-262.009,262.01C117.305,524.02,0,406.715,0,262.01
			S117.305,0,262.009,0C406.709,0,524.018,117.305,524.018,262.01z"/>
	</defs>
	<clipPath id="SVGID_2_">
		<use xlink:href="#SVGID_1_"  overflow="visible"/>
	</clipPath>
	<g id="Slide_1" clip-path="url(#SVGID_2_)">
		<g>
			<path fill="#EAEAEA" d="M524.018,262.01c0,144.705-117.309,262.01-262.009,262.01C117.305,524.02,0,406.715,0,262.01
				S117.305,0,262.009,0C406.709,0,524.018,117.305,524.018,262.01z"/>
			<g>
				<g>
					<g>
						<path fill="#FFFFFF" d="M561.568,229.659c0,3.819-3.096,6.915-6.915,6.915H328.244c-3.819,0-6.915-3.096-6.915-6.915v-76.891
							c0-3.819,3.096-6.915,6.915-6.915h226.409c3.819,0,6.915,3.096,6.915,6.915V229.659z"/>
					</g>
					<polygon fill="#FFFFFF" points="363.829,208.85 363.829,223.906 326.329,216.378 288.829,208.85 326.329,201.322 
						363.829,193.794 					"/>
				</g>
			</g>
			<g>
				<rect x="164.825" y="262.01" fill="#F0C419" width="70.588" height="230.456"/>
				<path fill="#F0C419" d="M153.542,437.037c2.468,6.423-0.869,12.933-8.331,14.09l0,0c-7.468,1.167-16.269-4.368-18.739-11.901
					c-23.295-70.305-1.025-139.206,42.085-178.579c4.688-4.323,11.549-2.271,15.422,3.762l0,0c3.873,6.051,4.104,13.259,0.377,16.88
					C148.748,315.116,130.234,375.482,153.542,437.037z"/>
				<polygon fill="#E2F4FD" points="200.119,258.895 235.382,258.895 217.752,289.436 200.119,319.977 182.485,289.436 
					164.855,258.895 				"/>
				<path fill="#D25627" d="M164.825,521.401c16.46,3.241,33.458,2.618,50.865,2.618c6.642,0,13.204-1.628,19.723-2.11v-29.443
					h-70.588V521.401z"/>
				<path fill="#DCB6B6" d="M204.791,69.274c-42.109,0-77.796,28.76-90.246,68.57c-16.655,0.989-29.869,14.771-29.869,31.674
					c0,17.034,13.418,30.896,30.254,31.692c12.786,39.188,48.174,67.374,89.861,67.374c52.459,0,94.984-44.616,94.984-99.655
					C299.775,113.891,257.25,69.274,204.791,69.274z"/>
				<path fill="#D6572B" d="M321.575,66.938c0,0-134.102-8.585-160.376,12.472c0,0,0,0,0,0.001
					c-22.282,12.36-39.286,33.023-46.932,57.797c0.742-0.051,1.483-0.113,2.24-0.113c16.795,0,30.517,13.011,31.715,29.498h19.197
					V93.969c12.547,12.208,37.744,26.361,42.043,27.448c0,1.575,60.727,0,60.727,0l-18.686-18.667L321.575,66.938z"/>
				<path opacity="0.5" fill="#734F4F" d="M221.918,256.297c-49.879,0-90.312-40.434-90.312-90.312s40.434-90.313,90.312-90.313
					c8.016,0,30.348-10.404,30.348-10.404s-37.496,1.363-52.342,2.554c-41.975,3.367-73.206,29.576-85.656,69.387
					c-16.654,0.989-29.592,15.406-29.592,32.31c0,17.034,13.418,30.896,30.254,31.692c12.786,39.188,48.174,67.374,89.861,67.374
					c23.76,0,45.465-9.173,62.121-24.304C253.664,251.912,238.309,256.297,221.918,256.297z"/>
				<path fill="#341854" d="M247.869,178.313c0,3.439-2.788,6.228-6.229,6.228l0,0c-3.438,0-6.228-2.789-6.228-6.228v-20.15
					c0-3.439,2.79-6.228,6.228-6.228l0,0c3.44,0,6.229,2.789,6.229,6.228V178.313z"/>
				<path fill="#341854" d="M276.418,178.313c0,3.439-2.788,6.228-6.229,6.228l0,0c-3.439,0-6.228-2.789-6.228-6.228v-20.15
					c0-3.439,2.788-6.228,6.228-6.228l0,0c3.44,0,6.229,2.789,6.229,6.228V178.313z"/>
				<g>
					<path fill="#341854" d="M269.64,210.688c1.466,2.281,0.196,5.7-3.001,7.209c-15.814,7.477-34.18,7.477-49.994,0
						c-3.197-1.508-4.467-4.928-3.003-7.209l0,0c1.469-2.293,4.636-2.894,7.207-1.688c13.154,6.219,28.431,6.219,41.585,0
						C265.005,207.794,268.172,208.395,269.64,210.688L269.64,210.688z"/>
				</g>
				<path fill="#E2F4FD" d="M149.324,424.627l4.516,10.608c3.261,7.657,0.244,16.271-6.73,19.241l0,0
					c-6.977,2.971-15.275-0.828-18.53-8.488l-4.519-13.602"/>
			</g>
		</g>
	</g>
</g>
</svg>
